HIERARCHY
ROOT Hips
{
	OFFSET 0.000000 0.000000 0.000000
	CHANNELS 6 Xposition Yposition Zposition Xrotation Yrotation Zrotation
	JOINT LeftUpLeg_virtual
	{
		OFFSET 0.000000 0.000000 0.000000
		CHANNELS 3 Xrotation Yrotation Zrotation
		JOINT LeftUpLeg
		{
			OFFSET 15.427100 -6.655098 0.678600
			CHANNELS 3 Xrotation Yrotation Zrotation
			JOINT LeftLeg
			{
				OFFSET 4.081073 -39.591068 13.024000
				CHANNELS 3 Xrotation Yrotation Zrotation
				JOINT LeftFoot
				{
					OFFSET -4.081074 -37.707932 -15.979700
					CHANNELS 3 Xrotation Yrotation Zrotation
					JOINT LeftToeBase
					{
						OFFSET 5.346399 -15.068900 20.645000
						CHANNELS 3 Xrotation Yrotation Zrotation
						JOINT LeftToe_End
						{
							OFFSET 2.754700 0.931300 11.300900
							CHANNELS 3 Xrotation Yrotation Zrotation
							End Site
							{
								OFFSET 0 0 0
							}
						}
					}
				}
			}
		}
	}
	JOINT RightUpLeg_virtual
	{
		OFFSET 0.000000 0.000000 0.000000
		CHANNELS 3 Xrotation Yrotation Zrotation
		JOINT RightUpLeg
		{
			OFFSET -15.569500 -6.655098 0.678600
			CHANNELS 3 Xrotation Yrotation Zrotation
			JOINT RightLeg
			{
				OFFSET -4.081825 -39.591045 13.023800
				CHANNELS 3 Xrotation Yrotation Zrotation
				JOINT RightFoot
				{
					OFFSET 4.081824 -37.707954 -15.979600
					CHANNELS 3 Xrotation Yrotation Zrotation
					JOINT RightToeBase
					{
						OFFSET -5.346400 -15.068900 20.645000
						CHANNELS 3 Xrotation Yrotation Zrotation
						JOINT RightToe_End
						{
							OFFSET -2.754700 0.931300 11.300900
							CHANNELS 3 Xrotation Yrotation Zrotation
							End Site
							{
								OFFSET 0 0 0
							}
						}
					}
				}
			}
		}
	}
	JOINT Spine_virtual
	{
		OFFSET 0.000000 0.000000 0.000000
		CHANNELS 3 Xrotation Yrotation Zrotation
		JOINT Spine
		{
			OFFSET -0.279200 12.230698 -2.892100
			CHANNELS 3 Xrotation Yrotation Zrotation
			JOINT Spine1
			{
				OFFSET -0.232667 10.192268 -1.242267
				CHANNELS 3 Xrotation Yrotation Zrotation
				JOINT Spine1_split
				{
					OFFSET -0.232667 10.192268 -1.242267
					CHANNELS 3 Xrotation Yrotation Zrotation
					JOINT Spine2
					{
						OFFSET -0.232667 10.192268 -1.242267
						CHANNELS 3 Xrotation Yrotation Zrotation
						JOINT Neck_virtual
						{
							OFFSET 0.000000 0.000000 0.000000
							CHANNELS 3 Xrotation Yrotation Zrotation
							JOINT Neck
							{
								OFFSET -0.418800 17.814194 8.416900
								CHANNELS 3 Xrotation Yrotation Zrotation
								JOINT Head
								{
									OFFSET 0.000000 7.031097 3.806800
									CHANNELS 3 Xrotation Yrotation Zrotation
									JOINT HeadTop_End
									{
										OFFSET 0.000000 24.646606 12.978600
										CHANNELS 3 Xrotation Yrotation Zrotation
										End Site
										{
											OFFSET 0 0 0
										}
									}
								}
							}
						}
						JOINT LeftShoulder_virtual
						{
							OFFSET 0.000000 0.000000 0.000000
							CHANNELS 3 Xrotation Yrotation Zrotation
							JOINT LeftShoulder
							{
								OFFSET 8.476499 7.247704 -3.868750
								CHANNELS 3 Xrotation Yrotation Zrotation
								JOINT LeftShoulder_split
								{
									OFFSET 8.476499 7.247704 -3.868750
									CHANNELS 3 Xrotation Yrotation Zrotation
									JOINT LeftArm
									{
										OFFSET 9.308998 -2.777710 0.208600
										CHANNELS 3 Xrotation Yrotation Zrotation
										JOINT LeftForeArm
										{
											OFFSET 29.972298 0.000000 0.000000
											CHANNELS 3 Xrotation Yrotation Zrotation
											JOINT LeftHand
											{
												OFFSET 26.026505 0.000000 0.000000
												CHANNELS 3 Xrotation Yrotation Zrotation
												End Site
												{
													OFFSET 0 0 0
												}
											}
										}
									}
								}
							}
						}
						JOINT RightShoulder_virtual
						{
							OFFSET 0.000000 0.000000 0.000000
							CHANNELS 3 Xrotation Yrotation Zrotation
							JOINT RightShoulder
							{
								OFFSET -7.570500 7.247704 -3.868750
								CHANNELS 3 Xrotation Yrotation Zrotation
								JOINT RightShoulder_split
								{
									OFFSET -7.570500 7.247704 -3.868750
									CHANNELS 3 Xrotation Yrotation Zrotation
									JOINT RightArm
									{
										OFFSET -9.308998 -2.777710 0.208500
										CHANNELS 3 Xrotation Yrotation Zrotation
										JOINT RightForeArm
										{
											OFFSET -29.972300 0.000000 0.000000
											CHANNELS 3 Xrotation Yrotation Zrotation
											JOINT RightHand
											{
												OFFSET -26.026505 0.000000 0.000000
												CHANNELS 3 Xrotation Yrotation Zrotation
												End Site
												{
													OFFSET 0 0 0
												}
											}
										}
									}
								}
							}
						}
					}
				}
			}
		}
	}
}
MOTION
Frames: 4
Frame Time: 0.03333333
3.866135 87.729279 0.265148 0.000000 0.000000 0.000000 6.040834 -82.359691 7.823962 -23.803196 30.015553 29.811737 22.713318 -9.694970 0.126363 -2.405448 4.856658 -17.962764 -1.340435 -0.000682 -0.000041 0.000000 0.000000 0.000000 6.040834 -82.359691 7.823962 -25.244676 -8.091578 -27.678015 19.610429 4.816068 -3.334977 0.859348 7.641018 24.036409 0.054337 -0.000410 -0.000041 0.000000 0.000000 0.000000 6.040834 -82.359691 7.823962 7.242068 -5.543787 -4.237307 3.166862 -8.381603 -0.481521 0.000000 0.000000 0.000000 0.000000 0.000000 0.000000 3.223297 -8.349586 -0.164305 -11.969831 7.243054 7.032872 90.363116 78.707931 -96.238328 0.000000 0.000000 0.000000 3.223297 -8.349586 -0.164305 5.057010 3.013237 13.147429 0.000000 0.000000 0.000000 -41.358445 14.579317 -0.628186 0.401517 -12.314965 -0.190103 0.000000 0.000000 0.000000 3.223297 -8.349586 -0.164305 -0.725741 3.118715 -19.460484 0.000000 0.000000 0.000000 -43.907639 41.643114 39.880737 179.727576 45.001671 -178.904142 0.000000 0.000000 0.000000 
3.781146 87.724831 0.246777 0.000000 0.000000 0.000000 5.834424 -82.203389 7.665669 -23.725027 29.952709 29.718740 22.660090 -9.739152 0.123696 -2.392984 4.840982 -17.975571 -1.325655 -0.000748 -0.000032 0.000000 0.000000 0.000000 5.834424 -82.203389 7.665669 -25.072212 -8.008830 -27.761680 19.707170 4.638011 -3.346305 0.685734 7.559215 24.124599 0.051895 -0.000350 -0.000017 0.000000 0.000000 0.000000 5.834424 -82.203389 7.665669 7.210889 -5.614863 -4.313883 3.193037 -8.441206 -0.434100 0.000000 0.000000 0.000000 0.000000 0.000000 0.000000 3.256757 -8.414373 -0.119544 -11.939455 7.256022 7.066639 91.444956 78.685439 -97.309644 0.000000 0.000000 0.000000 3.256757 -8.414373 -0.119544 4.942448 3.372604 13.150524 0.000000 0.000000 0.000000 -41.216797 14.374468 -0.890727 0.408203 -12.293945 -0.188316 0.000000 0.000000 0.000000 3.256757 -8.414373 -0.119544 -0.667744 3.236935 -19.377585 0.000000 0.000000 0.000000 -43.532518 41.170543 39.610992 179.791766 44.675420 -178.975804 0.000000 0.000000 0.000000 
3.696972 87.718811 0.228638 0.000000 0.000000 0.000000 5.643370 -82.049341 7.522151 -23.655051 29.894874 29.625426 22.611471 -9.815200 0.119809 -2.381411 4.853881 -17.978774 -1.321097 -0.000649 -0.000038 0.000000 0.000000 0.000000 5.643370 -82.049341 7.522151 -24.903040 -7.925882 -27.845585 19.805891 4.455447 -3.357210 0.512212 7.484733 24.213509 0.049751 -0.000372 -0.000004 0.000000 0.000000 0.000000 5.643370 -82.049341 7.522151 7.183184 -5.682869 -4.399472 3.217087 -8.497986 -0.386803 0.000000 0.000000 0.000000 0.000000 0.000000 0.000000 3.288895 -8.475683 -0.075523 -11.909490 7.269101 7.100595 92.471814 78.666950 -98.326310 0.000000 0.000000 0.000000 3.288895 -8.475683 -0.075523 4.841601 3.655645 13.158283 0.000000 0.000000 0.000000 -41.084056 14.218001 -1.098234 0.414902 -12.271937 -0.186576 0.000000 0.000000 0.000000 3.288895 -8.475683 -0.075523 -0.606759 3.367923 -19.287858 0.000000 0.000000 0.000000 -43.123332 40.674999 39.333004 179.850970 44.352062 -179.040432 0.000000 0.000000 0.000000 
3.613826 87.710007 0.210491 0.000000 0.000000 0.000000 5.462859 -81.898333 7.388959 -23.591706 29.840533 29.541203 22.569298 -9.877250 0.116461 -2.372703 4.848392 -17.985806 -1.337432 -0.000686 -0.000047 0.000000 0.000000 0.000000 5.462859 -81.898333 7.388959 -24.740016 -7.842204 -27.928531 19.910399 4.277596 -3.367845 0.338592 7.409373 24.301222 0.050602 -0.000392 -0.000024 0.000000 0.000000 0.000000 5.462859 -81.898333 7.388959 7.160485 -5.751383 -4.488735 3.238116 -8.558131 -0.333727 0.000000 0.000000 0.000000 0.000000 0.000000 0.000000 3.319804 -8.538072 -0.025669 -11.879794 7.281525 7.134543 93.480687 78.651117 -99.326578 0.000000 0.000000 0.000000 3.319804 -8.538072 -0.025669 4.748874 3.895330 13.168657 0.000000 0.000000 0.000000 -40.954733 14.107558 -1.279139 0.421505 -12.251572 -0.184840 0.000000 0.000000 0.000000 3.319804 -8.538072 -0.025669 -0.544066 3.510621 -19.192389 0.000000 0.000000 0.000000 -42.738430 40.179462 39.071260 179.924122 44.064842 -179.112654 0.000000 0.000000 0.000000 
